
<svg version="1.0" xmlns="http://www.w3.org/2000/svg"
 width="1024.000000pt" height="1024.000000pt" viewBox="0 0 1024.000000 1024.000000"
 preserveAspectRatio="xMidYMid meet">

<g transform="translate(-550.00000,1550.000000) scale(0.20000,-0.20000)"
fill="#000000" stroke="none">
<path d="M4888 7336 c-51 -14 -71 -26 -104 -63 -18 -21 -38 -26 -175 -43 -356
-45 -574 -116 -727 -237 -34 -26 -110 -76 -169 -111 -225 -131 -420 -288 -529
-426 -167 -210 -275 -531 -334 -994 -22 -165 -26 -337 -10 -391 5 -19 19 -45
31 -57 42 -45 71 -41 255 32 93 37 250 95 348 129 l179 62 171 -88 c594 -305
1079 -370 1781 -239 55 11 206 40 335 65 291 56 462 81 653 96 325 25 709 -36
895 -142 115 -67 194 -171 195 -261 1 -40 -4 -53 -26 -76 -26 -26 -32 -27
-125 -26 -150 0 -332 60 -602 195 l-135 68 65 -61 c128 -119 355 -249 505
-289 105 -28 233 -30 297 -6 167 64 169 281 5 447 -92 92 -341 247 -629 391
-105 53 -184 99 -193 112 -21 33 -40 138 -75 412 -52 410 -93 606 -152 719
-78 149 -284 304 -728 547 -222 122 -349 158 -590 166 -144 6 -157 8 -187 30
-35 27 -112 53 -152 52 -14 0 -47 -6 -73 -13z m75 -73 c-13 -2 -33 -2 -45 0
-13 2 -3 4 22 4 25 0 35 -2 23 -4z m439 -121 c71 -28 159 -107 199 -176 39
-68 37 -39 -2 35 -18 32 -53 79 -80 104 -44 41 -46 45 -21 39 93 -20 182 -53
287 -108 183 -95 504 -291 594 -362 173 -137 203 -229 296 -909 20 -143 38
-273 42 -288 l5 -28 -63 24 c-35 13 -122 40 -194 60 -503 141 -1127 159 -1795
52 -489 -79 -1030 -228 -1539 -424 -141 -54 -187 -68 -194 -59 -12 19 0 242
23 400 50 349 155 675 273 847 44 65 151 174 236 243 69 55 232 167 288 197
22 11 22 11 8 -23 -56 -134 -92 -330 -102 -551 -5 -129 3 -412 12 -403 2 2 8
71 14 153 46 606 144 890 346 1006 69 40 76 36 28 -13 -143 -146 -221 -422
-253 -888 -10 -147 -13 -297 -6 -289 2 2 9 74 15 159 33 432 88 699 179 875
46 87 151 197 216 226 141 62 659 129 976 125 136 -1 162 -4 212 -24z m578
-1616 c276 -37 521 -99 755 -193 126 -50 375 -168 375 -177 0 -2 -21 1 -47 7
-70 16 -528 14 -643 -1 -183 -26 -347 -54 -570 -97 -124 -24 -279 -53 -345
-64 -504 -86 -877 -63 -1279 80 -105 37 -430 188 -422 196 10 10 301 87 479
127 299 67 648 121 912 140 138 10 666 -2 785 -18z"/>
<path d="M5369 6802 c-17 -14 -23 -32 -27 -76 l-5 -57 -31 30 c-17 17 -47 36
-65 42 -31 11 -36 10 -53 -11 -24 -29 -18 -71 18 -142 13 -26 23 -48 20 -48
-2 0 -23 9 -47 20 -24 11 -62 20 -84 20 -79 0 -87 -47 -20 -117 25 -25 45 -48
45 -50 0 -2 -14 -3 -30 -3 -67 0 -129 -46 -114 -85 7 -18 63 -48 109 -59 l30
-8 -37 -19 c-43 -22 -68 -54 -68 -86 0 -28 27 -43 79 -43 l41 0 -20 -37 c-27
-51 -26 -81 4 -94 24 -11 37 -9 99 16 16 7 17 3 11 -34 -7 -45 14 -91 42 -91
27 0 69 30 94 67 l24 35 16 -61 c10 -33 23 -67 30 -76 32 -39 93 2 106 72 l7
35 37 -41 c61 -67 115 -51 115 35 l0 42 28 -15 c16 -8 42 -15 59 -15 53 -2 62
41 24 113 l-25 46 49 -10 c103 -20 146 35 78 100 -18 17 -46 38 -63 46 l-30
15 30 7 c94 20 135 48 135 89 0 22 -52 52 -103 60 l-41 7 36 29 c43 36 66 84
49 104 -22 26 -72 26 -148 2 l-23 -7 25 43 c24 42 31 81 19 112 -15 39 -109 5
-155 -56 -16 -20 -16 -18 -15 49 1 75 -17 113 -54 113 -19 0 -51 -33 -73 -75
l-15 -30 -12 30 c-25 64 -68 93 -101 67z m71 -63 c23 -43 24 -59 22 -186 -1
-67 -6 -93 -14 -93 -7 0 -30 45 -52 100 -34 88 -37 105 -31 152 12 88 39 98
75 27z m156 15 c12 -45 -5 -143 -37 -219 -27 -66 -34 -75 -56 -75 l-26 0 5 94
c4 78 10 105 36 160 23 50 36 66 51 66 14 0 23 -9 27 -26z m-311 -75 c44 -41
107 -150 121 -211 17 -75 -81 -18 -148 86 -59 92 -74 166 -33 166 8 0 36 -19
60 -41z m489 6 c14 -38 -42 -132 -127 -212 -57 -54 -74 -62 -94 -42 -34 34
145 269 203 269 7 0 14 -7 18 -15z m-568 -166 c34 -17 83 -49 108 -72 42 -37
46 -44 34 -59 -12 -16 -17 -16 -79 1 -86 24 -126 45 -171 89 -86 82 -21 106
108 41z m691 15 c7 -19 -39 -69 -87 -93 -19 -10 -67 -28 -107 -40 -40 -12 -79
-24 -88 -27 -37 -15 -10 27 52 80 95 79 214 121 230 80z m-346 -133 c59 -60
26 -171 -57 -187 -92 -17 -165 83 -120 165 18 33 53 50 104 51 35 0 49 -6 73
-29z m-278 -38 c42 -11 57 -20 57 -33 0 -18 -19 -24 -127 -45 -57 -11 -203 29
-203 55 0 12 35 31 75 41 39 10 125 3 198 -18z m642 13 c84 -35 8 -81 -135
-81 -160 0 -223 40 -112 70 31 9 62 18 67 20 28 10 150 3 180 -9z m-577 -107
c-2 -4 -45 -35 -97 -69 -85 -54 -100 -60 -148 -60 -46 0 -53 3 -53 20 0 33 73
77 158 95 42 9 88 20 102 24 27 9 43 5 38 -10z m371 -4 c82 -21 148 -54 186
-95 25 -26 27 -33 15 -40 -20 -13 -56 -12 -105 1 -54 15 -204 110 -205 130 0
21 10 30 29 25 9 -3 45 -12 80 -21z m-344 -35 c3 -5 -12 -31 -35 -58 -22 -26
-51 -65 -63 -87 -34 -62 -147 -110 -147 -62 0 32 61 100 140 156 91 64 96 66
105 51z m270 -32 c112 -74 200 -205 150 -224 -22 -9 -98 39 -140 88 -65 75
-102 168 -67 168 5 0 30 -14 57 -32z m-215 -20 c-1 -73 -53 -198 -104 -247
-106 -102 -73 106 34 223 47 50 70 58 70 24z m131 -20 c7 -18 35 -61 61 -95
36 -48 49 -75 53 -111 7 -58 -4 -79 -33 -63 -31 16 -82 101 -82 135 0 17 -7
56 -15 86 -8 30 -15 61 -15 68 0 23 18 12 31 -20z m-44 -33 c29 -106 0 -282
-45 -273 -40 8 -53 139 -26 259 14 62 18 70 37 67 16 -2 24 -15 34 -53z"/>
<path d="M3106 5823 c-47 -201 -90 -593 -64 -593 6 0 88 32 184 70 411 166
960 323 1374 393 69 12 -58 5 -170 -8 -366 -45 -742 -135 -1120 -268 -85 -30
-162 -58 -171 -61 -15 -6 -18 4 -24 81 -6 83 9 421 21 470 4 13 4 23 1 23 -3
0 -17 -48 -31 -107z"/>
<path d="M6650 5014 c-19 -2 -64 -7 -100 -10 l-65 -7 80 -19 c66 -16 123 -20
320 -22 247 -3 336 -15 464 -60 73 -26 58 -11 -21 22 -139 57 -315 90 -513 96
-71 2 -146 2 -165 0z"/>
<path d="M3668 4620 c-182 -33 -310 -85 -415 -170 -79 -64 -156 -178 -186
-276 l-22 -74 -80 0 c-50 0 -86 -5 -93 -12 -17 -17 -16 -208 1 -231 8 -12 33
-19 79 -24 l67 -6 6 -46 c18 -142 38 -237 65 -313 199 -550 786 -693 1310
-320 157 112 342 323 427 488 76 146 134 366 120 456 -5 39 29 123 64 155 73
67 213 71 288 7 40 -33 62 -105 66 -216 14 -366 321 -789 717 -989 128 -65
303 -109 428 -109 77 0 189 22 272 53 224 85 391 287 463 560 19 73 45 227 45
269 0 4 32 10 71 14 39 4 77 13 85 21 10 11 14 41 14 113 0 126 -4 130 -110
130 l-78 0 -17 53 c-71 218 -225 364 -457 431 -196 57 -176 56 -1659 55 -1288
-1 -1370 -2 -1471 -19z m602 -87 c288 -42 462 -139 542 -301 105 -213 -13
-567 -281 -845 -190 -197 -402 -316 -623 -348 -454 -66 -790 289 -790 836 -1
377 163 573 542 650 169 34 409 38 610 8z m1440 13 c0 -3 -28 -20 -62 -38 -77
-41 -170 -126 -205 -187 -15 -25 -28 -48 -29 -50 -2 -2 -18 12 -36 31 -53 56
-111 81 -203 86 -104 5 -176 -20 -233 -82 l-40 -43 -12 26 c-36 81 -129 169
-243 232 l-52 29 558 0 c306 0 557 -2 557 -4z m865 -11 c298 -45 468 -143 553
-318 132 -274 72 -713 -131 -958 -70 -84 -177 -156 -287 -194 -75 -25 -99 -28
-205 -28 -101 0 -134 5 -209 27 -308 92 -595 342 -747 650 -92 188 -113 361
-59 501 47 123 204 240 387 289 171 46 501 61 698 31z"/>
<path d="M3718 4435 c-267 -45 -429 -172 -483 -380 -18 -72 -20 -243 -3 -317
l12 -53 7 100 c9 139 25 207 69 301 87 180 277 287 618 344 l107 18 -125 0
c-69 0 -160 -6 -202 -13z"/>
</g>
</svg>

