
<svg version="1.0" xmlns="http://www.w3.org/2000/svg"
 width="1024.000000pt" height="1024.000000pt" viewBox="0 0 1024.000000 1024.000000"
 preserveAspectRatio="xMidYMid meet">

<g transform="translate(-500.000000,1550.000000) scale(0.20000,-0.20000)"
fill="#000000" stroke="none">
<path d="M5847 7046 c-21 -8 -46 -21 -55 -30 -16 -13 -26 -14 -98 -1 -245 43
-615 46 -824 7 -316 -59 -628 -174 -778 -287 -198 -149 -332 -406 -513 -983
l-63 -202 -41 -11 c-247 -64 -587 -219 -696 -317 -71 -64 -85 -142 -30 -171
32 -17 51 -14 218 39 276 88 528 130 785 130 362 0 710 -72 1094 -225 225 -90
390 -170 678 -330 426 -236 604 -297 855 -296 134 0 267 33 397 96 51 25 97
45 103 45 5 0 34 -23 65 -51 96 -88 152 -229 163 -414 15 -260 -62 -537 -196
-702 -63 -77 -173 -151 -272 -184 -63 -20 -92 -24 -199 -23 -109 0 -135 4
-205 28 -361 124 -727 525 -809 884 -26 113 -17 204 29 291 22 44 98 125 141
152 19 11 34 24 34 27 0 4 -20 18 -45 31 l-46 24 -42 -30 c-39 -28 -129 -134
-139 -165 -3 -9 -19 0 -50 28 -56 52 -104 69 -194 68 -56 0 -81 -5 -127 -28
-32 -15 -67 -41 -79 -56 l-21 -29 -37 57 c-48 72 -109 131 -184 176 l-60 36
410 0 409 0 -81 48 -82 49 -750 6 c-475 3 -777 2 -822 -4 -357 -50 -572 -219
-635 -499 -9 -41 -19 -81 -21 -87 -2 -9 -24 -13 -63 -13 -44 0 -60 -4 -65 -16
-11 -28 -6 -140 6 -152 7 -7 36 -12 65 -12 l53 0 0 -47 c0 -27 7 -89 15 -140
58 -356 241 -602 520 -700 74 -26 92 -28 230 -28 147 0 152 1 252 36 182 64
324 159 493 329 119 120 212 244 277 375 65 128 91 213 109 350 18 143 39 193
93 223 79 45 203 24 245 -41 25 -37 46 -117 46 -173 0 -28 9 -84 19 -125 55
-214 181 -421 375 -615 168 -168 324 -270 506 -330 78 -26 98 -28 235 -29 139
0 156 2 232 28 297 102 483 377 525 775 l12 112 51 0 c28 0 56 5 63 12 7 7 12
41 12 85 0 84 -11 96 -87 92 l-45 -3 -23 92 c-30 117 -84 219 -157 295 -31 34
-56 61 -55 62 1 0 21 15 45 34 l44 33 70 -32 c93 -43 151 -60 205 -60 83 0
102 25 138 185 55 243 60 562 12 765 -138 583 -562 1058 -1171 1316 -97 41
-102 45 -133 97 -36 61 -86 98 -163 121 -65 19 -122 20 -173 2z m168 -106 c22
-11 32 -18 23 -16 -9 3 -35 10 -57 16 -23 6 -41 13 -41 15 0 11 38 3 75 -15z
m-374 -19 c411 -75 854 -254 1025 -413 122 -114 196 -260 231 -451 22 -125 21
-388 -2 -574 -15 -116 -16 -145 -5 -158 13 -16 37 -19 64 -9 57 22 84 571 39
790 -12 55 -28 117 -37 137 -8 20 -12 37 -8 37 14 0 144 -161 207 -256 115
-172 197 -367 240 -569 37 -177 28 -491 -21 -705 -22 -97 -21 -97 -94 -77 -46
13 -389 174 -409 193 -2 2 13 66 33 143 42 160 40 181 -19 181 -18 0 -36 -4
-39 -9 -3 -5 -20 -62 -36 -127 -17 -66 -34 -122 -38 -125 -4 -4 -70 22 -147
58 -767 355 -1332 536 -1920 614 -295 39 -792 31 -1033 -17 -26 -5 -32 -3 -32
10 0 32 170 528 219 637 28 62 72 149 98 193 62 104 187 231 273 279 153 83
442 178 665 217 157 27 166 28 410 25 172 -2 245 -7 336 -24z m-1140 -1401
c574 -45 1195 -224 1941 -561 235 -105 518 -246 518 -257 0 -13 -157 -112
-241 -151 -115 -54 -185 -71 -314 -78 -231 -12 -419 51 -815 273 -630 352
-1084 515 -1574 565 -150 15 -503 6 -641 -15 -109 -18 -303 -63 -405 -95 -35
-11 -66 -19 -68 -17 -5 6 111 69 208 114 403 186 877 261 1391 222z m-291
-890 c136 -17 247 -47 347 -95 254 -120 330 -338 214 -616 -141 -339 -447
-642 -759 -752 -79 -28 -99 -31 -212 -32 -155 0 -233 21 -345 96 -215 144
-341 457 -322 803 11 201 52 313 151 412 94 93 219 147 421 179 99 16 392 19
505 5z"/>
<path d="M5249 6563 c-17 -15 -40 -45 -49 -66 -18 -39 -18 -39 -30 -16 -52
101 -174 128 -215 49 -19 -37 -19 -107 -1 -142 17 -31 16 -32 -36 -18 -83 23
-158 -26 -158 -102 0 -52 28 -90 86 -118 l45 -22 -28 -15 c-108 -56 -125 -170
-33 -218 39 -20 76 -19 127 4 l42 20 -10 -25 c-15 -42 -10 -107 11 -142 39
-64 116 -67 170 -5 18 20 37 49 42 65 l10 29 28 -44 c65 -102 190 -96 217 11
5 23 -5 86 -22 124 -6 16 -4 17 25 7 17 -6 54 -9 83 -6 63 6 97 39 97 95 0 52
-30 95 -85 122 l-47 23 28 13 c82 37 114 106 80 173 -26 50 -109 67 -182 36
-35 -14 -35 -14 -27 8 4 12 8 46 8 75 0 48 -4 57 -33 83 -44 39 -98 40 -143 2z
m99 -45 c20 -20 14 -85 -12 -136 -41 -79 -47 -85 -80 -72 -28 10 -28 11 -21
67 9 70 20 101 47 131 24 24 48 28 66 10z m-260 -31 c23 -24 45 -79 56 -140 6
-33 4 -38 -16 -46 -18 -7 -29 -4 -51 18 -82 77 -102 191 -33 191 13 0 32 -10
44 -23z m476 -153 c19 -19 19 -19 4 -47 -17 -32 -37 -45 -93 -61 -96 -27 -111
-27 -123 -1 -10 21 -7 27 33 60 76 62 147 81 179 49z m-596 -53 c70 -35 83
-50 75 -80 -6 -22 -9 -23 -70 -17 -101 10 -153 38 -153 81 0 53 62 60 148 16z
m306 -58 c72 -72 9 -197 -90 -179 -104 20 -113 178 -11 204 44 11 72 4 101
-25z m263 -129 c73 -36 68 -104 -9 -104 -40 0 -74 14 -140 57 -34 23 -36 27
-25 50 11 24 14 25 73 20 34 -2 80 -13 101 -23z m-486 -16 c11 -20 7 -26 -32
-61 -71 -64 -150 -86 -180 -51 -29 35 33 93 129 119 65 18 70 18 83 -7z m299
-122 c48 -63 63 -107 50 -142 -22 -57 -94 -14 -124 73 -21 61 -20 100 2 112
26 16 29 15 72 -43z m-182 -10 c5 -55 -24 -141 -54 -165 -34 -27 -40 -26 -61
5 -14 22 -15 32 -5 70 6 24 26 66 42 93 27 43 34 49 53 42 16 -6 23 -18 25
-45z"/>
</g>
</svg>

